<svg width="72" height="72" viewBox="0 0 72 72" fill="none" xmlns="http://www.w3.org/2000/svg">
<g clip-path="url(#clip0_158_29946)">
<path d="M60 12H12C8.7 12 6.03 14.7 6.03 18L6 54C6 57.3 8.7 60 12 60H60C63.3 60 66 57.3 66 54V18C66 14.7 63.3 12 60 12ZM57 54H15C13.35 54 12 52.65 12 51V24L32.82 37.02C34.77 38.25 37.23 38.25 39.18 37.02L60 24V51C60 52.65 58.65 54 57 54ZM36 33L12 18H60L36 33Z" fill="#766BF1"/>
</g>
<defs>
<clipPath id="clip0_158_29946">
<rect width="72" height="72" fill="white"/>
</clipPath>
</defs>
</svg>
