<svg width="190" height="36" viewBox="0 0 190 36" fill="none" xmlns="http://www.w3.org/2000/svg">
<path d="M16.3422 20.778C16.176 20.4666 15.7308 20.3298 15.513 20.526C15.4692 20.5656 15.426 20.607 15.384 20.649C15.315 20.718 15.2478 20.7888 15.1788 20.8578C15.18 20.859 15.1812 20.8602 15.1824 20.8614C15.114 20.9298 15.0426 20.9946 14.9742 21.063C14.931 21.1062 14.8896 21.15 14.8512 21.1968C14.7336 21.3402 14.637 21.4986 14.7258 21.7332C14.9034 22.2018 15.42 22.404 15.7374 22.1172C15.8376 22.0266 15.9354 21.9324 16.0308 21.837C16.161 21.7068 16.2882 21.5736 16.416 21.441C16.5282 21.3246 16.5354 21.1704 16.452 20.9958C16.4172 20.9226 16.3806 20.85 16.3422 20.778Z" fill="#766BF1"/>
<path d="M4 0C1.79086 0 0 1.79086 0 4V32C0 34.2091 1.79086 36 4 36H32C34.2091 36 36 34.2091 36 32V4C36 1.79086 34.2091 0 32 0H4ZM30.0138 4.113C30.0018 4.125 29.9886 4.137 29.9748 4.1484C29.9184 4.1952 29.8752 4.23 29.8446 4.2606C29.7522 4.353 29.7714 4.4088 29.8614 4.6476C29.8746 4.6824 29.8824 4.7184 29.8998 4.7514C29.9508 4.848 29.949 4.9134 29.9076 4.9554C29.8818 4.9812 29.8416 4.998 29.7882 5.0076C29.5056 5.0598 29.301 5.2134 29.1114 5.403C29.1048 5.4096 29.0982 5.4162 29.0916 5.4228C28.83 5.6886 28.5678 5.9538 28.3044 6.2184C28.1778 6.3456 28.0512 6.4734 27.924 6.6006C27.4854 7.0392 27.0444 7.4766 26.6034 7.9122C26.6016 7.914 26.5998 7.9158 26.598 7.9176C26.559 7.9566 26.5254 7.9956 26.5014 8.0376C26.3868 8.2356 26.2572 8.424 26.0976 8.5836C26.0808 8.6004 26.0634 8.6172 26.0454 8.634C26.0352 8.6436 26.025 8.6532 26.0148 8.6634C26.0112 8.667 26.0076 8.6706 26.004 8.6742C25.8486 8.8326 25.692 8.9904 25.5348 9.1476C25.3452 9.3372 25.155 9.5262 24.9654 9.7158C24.9636 9.7176 24.9624 9.7188 24.9606 9.7206L24.9588 9.7224C24.8286 9.8526 24.6978 9.9822 24.567 10.1124C24.4362 10.2426 24.2964 10.3848 24.1638 10.524C24.1224 10.5672 24.09 10.6872 24.117 10.7172C24.2664 10.8846 24.1932 10.9686 24.1014 11.0604C24.096 11.0658 24.0906 11.0712 24.0858 11.076C23.856 11.3052 23.6268 11.5344 23.397 11.7636C23.1624 11.9982 22.9278 12.2334 22.6926 12.468C22.1604 13.0002 21.6282 13.5318 21.0924 14.061C21.0906 14.0628 21.0888 14.0646 21.087 14.0664C20.9388 14.2146 20.844 14.382 20.8092 14.6004C20.7726 14.8308 20.73 15.0606 20.67 15.282C20.6244 15.4488 20.556 15.5916 20.4504 15.6972C20.3424 15.8052 20.196 15.8736 19.9968 15.8886C19.8822 15.897 19.7634 15.9522 19.6854 16.026C19.4916 16.212 19.3002 16.401 19.11 16.5906C18.9072 16.7934 18.7062 16.9968 18.5034 17.1996C18.2796 17.4234 18.2832 17.4456 18.5862 17.6862C18.5964 17.694 18.6072 17.7006 18.6168 17.709C19.4766 18.4284 20.4426 18.8166 21.4434 19.113C22.6086 19.4586 23.7444 19.5348 24.8658 19.4628C25.0326 19.452 25.0746 19.5114 25.1082 19.6554C25.1664 19.9056 25.2318 20.1558 25.3104 20.4048C25.494 20.988 25.6836 21.5706 25.872 22.1532C25.9188 22.2984 25.887 22.4346 25.8018 22.5198C25.749 22.5726 25.6752 22.6062 25.5876 22.6098C23.7102 22.6938 21.8088 22.317 19.8948 21.6762C19.1022 21.411 18.3408 21.0318 17.5902 20.6184C17.4468 20.5392 17.3838 20.5116 17.3448 20.55C17.3184 20.5764 17.3034 20.6346 17.2818 20.7282C17.2722 20.7702 17.2458 20.8086 17.2128 20.8416C17.1828 20.8716 17.1468 20.898 17.112 20.9178C17.0676 20.9436 17.0298 20.9736 16.9968 21.0066C16.9164 21.087 16.8648 21.1878 16.8198 21.3078C16.7184 21.5766 16.575 21.8268 16.4142 22.0572C16.353 22.1448 16.284 22.23 16.2078 22.3068C16.1322 22.3824 16.0488 22.4496 15.9588 22.503C15.7866 22.6044 15.5634 22.6434 15.351 22.6758C15.2916 22.6848 15.2508 22.6998 15.2244 22.7256C15.1956 22.7544 15.1848 22.797 15.1866 22.8606C15.2118 23.592 15.3108 24.3276 15.5784 25.0614C15.7206 25.4514 15.9132 25.8324 16.08 26.2182C16.1034 26.2728 16.1358 26.3442 16.1214 26.3856C16.0092 26.7012 15.8982 27.0186 15.6714 27.246C15.594 27.3234 15.5034 27.39 15.3948 27.4428C15.0264 27.621 14.595 27.531 14.2374 27.189C14.1846 27.1386 14.1384 27.069 14.112 27.003C13.764 26.1438 13.4166 25.2846 13.0782 24.4236C13.0116 24.2544 12.9852 24.0768 12.9354 23.8854C12.7566 23.892 12.5802 23.8698 12.4338 23.9136C12.3738 23.9316 12.3144 23.9694 12.2658 24.0174C12.228 24.0552 12.1968 24.0996 12.1782 24.1452C11.7474 25.2054 11.3094 26.2626 10.9134 27.3414C10.2294 29.2038 9.4734 31.0254 8.6994 32.8368C8.5968 33.0762 8.4942 33.3156 8.3916 33.555C8.3712 33.6018 8.3538 33.6348 8.3346 33.654C8.2914 33.6972 8.2416 33.6702 8.1378 33.5778C7.5318 33.036 6.9288 32.4912 6.3222 31.9506C5.7156 31.41 5.1072 30.8718 4.497 30.336C4.1874 30.0642 4.1436 29.9886 4.2714 29.6676C4.443 29.2374 4.6404 28.8324 4.9668 28.5066C5.0034 28.47 5.0418 28.4346 5.0814 28.3998C5.1654 28.3272 5.2458 28.2516 5.3244 28.173C5.6298 27.8676 5.8998 27.5244 6.1836 27.1968C6.5058 26.8248 6.81 26.4372 7.1262 26.0598C7.4262 25.7028 7.7238 25.344 8.0382 25.0008C8.0496 24.9888 8.061 24.9768 8.0724 24.9648C8.1876 24.8496 8.3292 24.756 8.4702 24.6696C8.6994 24.5292 8.9538 24.4218 9.1752 24.2718C9.198 24.2562 9.2196 24.2382 9.2394 24.2184C9.3132 24.1446 9.3684 24.0444 9.417 23.949C9.66 23.4696 9.8946 22.9848 10.1268 22.4988C10.158 22.4334 10.1718 22.3518 10.1706 22.2738C10.1598 21.6984 10.143 21.1218 10.1268 20.5452C10.1244 20.4666 10.1202 20.3934 10.1616 20.352C10.1862 20.3274 10.227 20.3142 10.2942 20.3178C10.3452 20.3208 10.3932 20.28 10.4364 20.2368C10.4526 20.2206 10.4682 20.2044 10.4826 20.1894C11.781 18.8928 13.0788 17.5956 14.376 16.2984C14.8308 15.8436 15.285 15.3894 15.7398 14.9346C15.8436 14.8308 15.948 14.7264 16.0524 14.6226C16.1226 14.5524 16.1922 14.4822 16.2624 14.412C16.3824 14.2908 16.5006 14.1816 16.5174 13.9722C16.5288 13.8354 16.6446 13.716 16.7418 13.6176C16.9716 13.3842 17.2026 13.152 17.4342 12.9204C17.7876 12.567 18.1428 12.2148 18.4998 11.8644C19.2018 11.1744 19.908 10.4886 20.6142 9.8028C20.9298 9.4968 21.231 9.1734 21.5742 8.8992C21.7752 8.7384 22.053 8.6694 22.2834 8.541C22.4706 8.4366 22.6614 8.3268 22.8126 8.181C23.0688 7.9338 23.3226 7.6836 23.5746 7.4316C23.8674 7.1388 24.1578 6.8442 24.4482 6.5496L24.45 6.5478C24.5346 6.4632 24.6252 6.4452 24.7602 6.4644C25.2192 6.5292 25.6788 6.582 26.1354 6.6186C26.2308 6.6264 26.3352 6.5628 26.4018 6.4974C26.667 6.2382 26.9298 5.9766 27.1914 5.7144C27.2982 5.6076 27.4044 5.5008 27.5112 5.3946C27.6534 5.2524 27.7962 5.1102 27.939 4.968L27.9414 4.9656C28.0746 4.8324 28.119 4.6932 28.0044 4.467C27.7776 4.0212 27.5808 3.5646 27.3684 3.114C27.3372 3.0474 27.297 2.9766 27.2448 2.9238C27.1248 2.8032 27.1326 2.7186 27.21 2.6412C27.2208 2.6304 27.2328 2.6202 27.2454 2.61C27.27 2.5908 27.2922 2.5692 27.3144 2.5476C27.3498 2.5122 27.3834 2.475 27.4188 2.4396C27.4206 2.4378 27.4224 2.436 27.4248 2.4336C27.5754 2.2854 27.5766 2.2848 27.7554 2.4624C28.1322 2.838 28.5108 3.2124 28.8828 3.5928C28.9842 3.6966 29.067 3.7476 29.1534 3.6612C29.1588 3.6558 29.1642 3.6498 29.1702 3.6432C29.1852 3.6252 29.2002 3.6084 29.2158 3.5928C29.4384 3.3702 29.7228 3.387 30.0726 3.6576C30.1674 3.8586 30.1194 4.005 30.0114 4.113H30.0138Z" fill="#766BF1"/>
<path d="M54.9487 17C52.3872 17 50.2554 16.2116 48.5532 14.6348C46.8511 13.0415 46 10.9966 46 8.5C46 5.98696 46.8428 3.94203 48.5284 2.36522C50.2306 0.788406 52.3707 0 54.9487 0C58.2703 0 60.6748 1.47005 62.1621 4.41015L58.4934 6.13478C58.2125 5.46135 57.7415 4.89469 57.0805 4.43478C56.436 3.97488 55.7254 3.74493 54.9487 3.74493C53.6101 3.74493 52.5029 4.20483 51.627 5.12464C50.7677 6.02802 50.338 7.15314 50.338 8.5C50.338 9.84686 50.7677 10.9802 51.627 11.9C52.5029 12.8034 53.6101 13.2551 54.9487 13.2551C55.7254 13.2551 56.436 13.0251 57.0805 12.5652C57.7415 12.1053 58.2125 11.5386 58.4934 10.8652L62.1621 12.5899C61.5342 13.8382 60.6252 14.8894 59.4354 15.7435C58.2621 16.5812 56.7665 17 54.9487 17Z" fill="#F3F4F4"/>
<path d="M70.1535 17C67.0963 17 64.6505 16.1295 62.8161 14.3884L65.0719 11.2101C66.5261 12.6556 68.2861 13.3783 70.3518 13.3783C71.079 13.3783 71.6491 13.2551 72.0623 13.0087C72.4919 12.7459 72.7068 12.4174 72.7068 12.0232C72.7068 11.6783 72.4754 11.399 72.0127 11.1855C71.55 10.9556 70.9716 10.7913 70.2775 10.6928C69.5834 10.5778 68.8315 10.4053 68.0217 10.1754C67.212 9.92899 66.46 9.64976 65.766 9.33768C65.0719 9.00918 64.4935 8.49179 64.0308 7.78551C63.568 7.07923 63.3367 6.23333 63.3367 5.24783C63.3367 3.80242 63.9233 2.57053 65.0967 1.55217C66.2865 0.533816 67.8978 0.0246374 69.9304 0.0246374C72.6241 0.0246374 74.8634 0.788405 76.6481 2.31594L74.318 5.34638C72.9299 4.21304 71.3186 3.64638 69.4842 3.64638C68.2944 3.64638 67.6995 4.04058 67.6995 4.82899C67.6995 5.14106 67.9308 5.41208 68.3936 5.64203C68.8563 5.85556 69.4347 6.01981 70.1287 6.13478C70.8228 6.24976 71.5665 6.43043 72.3597 6.67681C73.1695 6.90676 73.9214 7.18599 74.6155 7.51449C75.3096 7.843 75.888 8.35217 76.3507 9.04203C76.8134 9.73188 77.0448 10.5531 77.0448 11.5058C77.0448 13.1812 76.4416 14.5198 75.2352 15.5217C74.0288 16.5072 72.3349 17 70.1535 17Z" fill="#F3F4F4"/>
<path d="M82.5093 8.57391C82.0466 9.03382 81.5012 9.26377 80.8732 9.26377C80.2453 9.26377 79.6999 9.03382 79.2372 8.57391C78.7745 8.11401 78.5431 7.57198 78.5431 6.94783C78.5431 6.32367 78.7745 5.78164 79.2372 5.32174C79.6999 4.86184 80.2453 4.63188 80.8732 4.63188C81.5012 4.63188 82.0466 4.86184 82.5093 5.32174C82.972 5.78164 83.2034 6.32367 83.2034 6.94783C83.2034 7.57198 82.972 8.11401 82.5093 8.57391ZM82.5093 16.3101C82.0466 16.77 81.5012 17 80.8732 17C80.2453 17 79.6999 16.77 79.2372 16.3101C78.7745 15.8502 78.5431 15.3082 78.5431 14.6841C78.5431 14.0599 78.7745 13.5179 79.2372 13.058C79.6999 12.5981 80.2453 12.3681 80.8732 12.3681C81.5012 12.3681 82.0466 12.5981 82.5093 13.058C82.972 13.5179 83.2034 14.0599 83.2034 14.6841C83.2034 15.3082 82.972 15.8502 82.5093 16.3101Z" fill="#F3F4F4"/>
<path d="M93.5597 17C91.0313 17 88.9078 16.2198 87.1891 14.6594C85.4704 13.099 84.6111 11.0459 84.6111 8.5C84.6111 5.95411 85.4704 3.90097 87.1891 2.34058C88.9078 0.780193 91.0313 0 93.5597 0C95.2784 0 96.7244 0.377778 97.8977 1.13333C99.0711 1.88889 99.98 2.84155 100.624 3.9913L97.0549 5.83913C96.7244 5.24783 96.2452 4.75507 95.6172 4.36087C95.0057 3.95024 94.3199 3.74493 93.5597 3.74493C92.2212 3.74493 91.1139 4.20483 90.2381 5.12464C89.3787 6.02802 88.9491 7.15314 88.9491 8.5C88.9491 9.84686 89.3787 10.9802 90.2381 11.9C91.1139 12.8034 92.2212 13.2551 93.5597 13.2551C94.1381 13.2551 94.7083 13.1565 95.2702 12.9594C95.8486 12.7623 96.2947 12.5324 96.6087 12.2696V10.9884H92.8904V7.26812H100.872V13.7971C98.9223 15.9324 96.4848 17 93.5597 17Z" fill="#F3F4F4"/>
<path d="M117.695 14.6101C116.026 16.2034 113.919 17 111.374 17C108.829 17 106.714 16.2034 105.028 14.6101C103.359 13.0169 102.525 10.9802 102.525 8.5C102.525 6.01981 103.359 3.98309 105.028 2.38985C106.714 0.796618 108.829 0 111.374 0C113.919 0 116.026 0.796618 117.695 2.38985C119.364 3.98309 120.199 6.01981 120.199 8.5C120.199 10.9802 119.364 13.0169 117.695 14.6101ZM111.374 13.2551C112.713 13.2551 113.795 12.8034 114.621 11.9C115.448 10.9966 115.861 9.86329 115.861 8.5C115.861 7.13671 115.448 6.00338 114.621 5.1C113.795 4.19662 112.713 3.74493 111.374 3.74493C110.019 3.74493 108.928 4.19662 108.102 5.1C107.276 6.00338 106.863 7.13671 106.863 8.5C106.863 9.86329 107.276 10.9966 108.102 11.9C108.928 12.8034 110.019 13.2551 111.374 13.2551Z" fill="#F3F4F4"/>
<path d="M136.794 17C134.233 17 132.101 16.2116 130.399 14.6348C128.697 13.0415 127.846 10.9966 127.846 8.5C127.846 5.98696 128.689 3.94203 130.374 2.36522C132.076 0.788406 134.216 0 136.794 0C140.116 0 142.521 1.47005 144.008 4.41015L140.339 6.13478C140.058 5.46135 139.587 4.89469 138.926 4.43478C138.282 3.97488 137.571 3.74493 136.794 3.74493C135.456 3.74493 134.349 4.20483 133.473 5.12464C132.613 6.02802 132.184 7.15314 132.184 8.5C132.184 9.84686 132.613 10.9802 133.473 11.9C134.349 12.8034 135.456 13.2551 136.794 13.2551C137.571 13.2551 138.282 13.0251 138.926 12.5652C139.587 12.1053 140.058 11.5386 140.339 10.8652L144.008 12.5899C143.38 13.8382 142.471 14.8894 141.281 15.7435C140.108 16.5812 138.612 17 136.794 17Z" fill="#F3F4F4"/>
<path d="M161.721 16.7043H156.887L156.069 14.3391H149.55L148.732 16.7043H143.898L150.12 0.271014H155.474L161.721 16.7043ZM154.904 10.6435L152.797 4.45942L150.69 10.6435H154.904Z" fill="#F3F4F4"/>
<path d="M168.993 17C165.936 17 163.49 16.1295 161.656 14.3884L163.911 11.2101C165.366 12.6556 167.126 13.3783 169.191 13.3783C169.918 13.3783 170.489 13.2551 170.902 13.0087C171.331 12.7459 171.546 12.4174 171.546 12.0232C171.546 11.6783 171.315 11.399 170.852 11.1855C170.389 10.9556 169.811 10.7913 169.117 10.6928C168.423 10.5778 167.671 10.4053 166.861 10.1754C166.051 9.92899 165.3 9.64976 164.605 9.33768C163.911 9.00918 163.333 8.49179 162.87 7.78551C162.408 7.07923 162.176 6.23333 162.176 5.24783C162.176 3.80242 162.763 2.57053 163.936 1.55217C165.126 0.533816 166.737 0.0246374 168.77 0.0246374C171.464 0.0246374 173.703 0.788405 175.488 2.31594L173.158 5.34638C171.769 4.21304 170.158 3.64638 168.324 3.64638C167.134 3.64638 166.539 4.04058 166.539 4.82899C166.539 5.14106 166.77 5.41208 167.233 5.64203C167.696 5.85556 168.274 6.01981 168.968 6.13478C169.662 6.24976 170.406 6.43043 171.199 6.67681C172.009 6.90676 172.761 7.18599 173.455 7.51449C174.149 7.843 174.727 8.35217 175.19 9.04203C175.653 9.73188 175.884 10.5531 175.884 11.5058C175.884 13.1812 175.281 14.5198 174.075 15.5217C172.868 16.5072 171.174 17 168.993 17Z" fill="#F3F4F4"/>
<path d="M190 16.7043H177.878V0.271014H190V3.96667H182.142V6.52899H189.826V10.2246H182.142V13.0087H190V16.7043Z" fill="#F3F4F4"/>
<path d="M49.2099 33.1C48.5899 33.1 48.0699 33.01 47.6499 32.83C47.2365 32.6434 46.9199 32.4034 46.6999 32.11C46.4865 31.81 46.3732 31.4967 46.3599 31.17C46.3599 31.11 46.3799 31.06 46.4199 31.02C46.4599 30.98 46.5099 30.96 46.5699 30.96H47.4599C47.5465 30.96 47.6099 30.98 47.6499 31.02C47.6965 31.0534 47.7365 31.0967 47.7699 31.15C47.8099 31.2767 47.8865 31.4034 47.9999 31.53C48.1132 31.65 48.2665 31.75 48.4599 31.83C48.6599 31.91 48.9099 31.95 49.2099 31.95C49.6899 31.95 50.0465 31.87 50.2799 31.71C50.5199 31.55 50.6399 31.3334 50.6399 31.06C50.6399 30.8667 50.5765 30.7134 50.4499 30.6C50.3232 30.48 50.1265 30.3734 49.8599 30.28C49.5999 30.18 49.2532 30.0767 48.8199 29.97C48.3199 29.85 47.8999 29.7067 47.5599 29.54C47.2265 29.3667 46.9732 29.15 46.7999 28.89C46.6332 28.63 46.5499 28.3 46.5499 27.9C46.5499 27.5134 46.6532 27.17 46.8599 26.87C47.0732 26.57 47.3732 26.3334 47.7599 26.16C48.1532 25.9867 48.6199 25.9 49.1599 25.9C49.5932 25.9 49.9765 25.96 50.3099 26.08C50.6432 26.1934 50.9199 26.3467 51.1399 26.54C51.3599 26.7267 51.5265 26.93 51.6399 27.15C51.7599 27.3634 51.8232 27.5734 51.8299 27.78C51.8299 27.8334 51.8099 27.8834 51.7699 27.93C51.7365 27.97 51.6865 27.99 51.6199 27.99H50.6899C50.6365 27.99 50.5832 27.9767 50.5299 27.95C50.4765 27.9234 50.4332 27.8734 50.3999 27.8C50.3599 27.5934 50.2299 27.4167 50.0099 27.27C49.7899 27.1234 49.5065 27.05 49.1599 27.05C48.7999 27.05 48.5099 27.1167 48.2899 27.25C48.0699 27.3834 47.9599 27.59 47.9599 27.87C47.9599 28.0567 48.0132 28.2134 48.1199 28.34C48.2332 28.46 48.4099 28.5667 48.6499 28.66C48.8965 28.7534 49.2199 28.8534 49.6199 28.96C50.1865 29.0867 50.6499 29.2334 51.0099 29.4C51.3699 29.5667 51.6332 29.78 51.7999 30.04C51.9665 30.2934 52.0499 30.6167 52.0499 31.01C52.0499 31.45 51.9299 31.8267 51.6899 32.14C51.4565 32.4467 51.1265 32.6834 50.6999 32.85C50.2732 33.0167 49.7765 33.1 49.2099 33.1Z" fill="#766BF1"/>
<path d="M64.4359 33C64.3692 33 64.3125 32.9767 64.2659 32.93C64.2192 32.8834 64.1959 32.8267 64.1959 32.76V26.24C64.1959 26.1734 64.2192 26.1167 64.2659 26.07C64.3125 26.0234 64.3692 26 64.4359 26H65.3759C65.4492 26 65.5059 26.0234 65.5459 26.07C65.5925 26.1167 65.6159 26.1734 65.6159 26.24V32.76C65.6159 32.8267 65.5925 32.8834 65.5459 32.93C65.5059 32.9767 65.4492 33 65.3759 33H64.4359Z" fill="#766BF1"/>
<path d="M78.4342 33C78.3608 33 78.3008 32.9767 78.2542 32.93C78.2075 32.8834 78.1842 32.8267 78.1842 32.76V26.25C78.1842 26.1767 78.2075 26.1167 78.2542 26.07C78.3008 26.0234 78.3608 26 78.4342 26H79.2242C79.3175 26 79.3875 26.0267 79.4342 26.08C79.4808 26.1267 79.5108 26.1634 79.5242 26.19L81.4542 29.79L83.4042 26.19C83.4175 26.1634 83.4475 26.1267 83.4942 26.08C83.5408 26.0267 83.6108 26 83.7042 26H84.4842C84.5575 26 84.6175 26.0234 84.6642 26.07C84.7108 26.1167 84.7342 26.1767 84.7342 26.25V32.76C84.7342 32.8267 84.7108 32.8834 84.6642 32.93C84.6175 32.9767 84.5575 33 84.4842 33H83.6442C83.5708 33 83.5108 32.9767 83.4642 32.93C83.4242 32.8834 83.4042 32.8267 83.4042 32.76V28.43L82.0042 31.1C81.9708 31.16 81.9275 31.2134 81.8742 31.26C81.8208 31.3 81.7508 31.32 81.6642 31.32H81.2542C81.1608 31.32 81.0875 31.3 81.0342 31.26C80.9875 31.2134 80.9475 31.16 80.9142 31.1L79.5142 28.43V32.76C79.5142 32.8267 79.4908 32.8834 79.4442 32.93C79.3975 32.9767 79.3408 33 79.2742 33H78.4342Z" fill="#766BF1"/>
<path d="M100.08 33.1C99.4996 33.1 98.9963 33.0034 98.5696 32.81C98.143 32.61 97.813 32.3067 97.5796 31.9C97.3463 31.4867 97.2296 30.96 97.2296 30.32V26.25C97.2296 26.1767 97.253 26.1167 97.2996 26.07C97.3463 26.0234 97.403 26 97.4696 26H98.3796C98.453 26 98.5096 26.0234 98.5496 26.07C98.5963 26.1167 98.6196 26.1767 98.6196 26.25V30.32C98.6196 30.8667 98.7496 31.2734 99.0096 31.54C99.2696 31.8 99.6263 31.93 100.08 31.93C100.533 31.93 100.886 31.8 101.14 31.54C101.4 31.2734 101.53 30.8667 101.53 30.32V26.25C101.53 26.1767 101.553 26.1167 101.6 26.07C101.646 26.0234 101.706 26 101.78 26H102.68C102.753 26 102.81 26.0234 102.85 26.07C102.896 26.1167 102.92 26.1767 102.92 26.25V30.32C102.92 30.96 102.803 31.4867 102.57 31.9C102.343 32.3067 102.016 32.61 101.59 32.81C101.17 33.0034 100.666 33.1 100.08 33.1Z" fill="#766BF1"/>
<path d="M115.659 33C115.592 33 115.535 32.9767 115.489 32.93C115.442 32.8834 115.419 32.8267 115.419 32.76V26.24C115.419 26.1734 115.442 26.1167 115.489 26.07C115.535 26.0234 115.592 26 115.659 26H116.589C116.655 26 116.712 26.0234 116.759 26.07C116.805 26.1167 116.829 26.1734 116.829 26.24V31.81H119.999C120.072 31.81 120.132 31.8334 120.179 31.88C120.225 31.9267 120.249 31.9867 120.249 32.06V32.76C120.249 32.8267 120.225 32.8834 120.179 32.93C120.132 32.9767 120.072 33 119.999 33H115.659Z" fill="#766BF1"/>
<path d="M131.789 33C131.736 33 131.686 32.98 131.639 32.94C131.599 32.9 131.579 32.85 131.579 32.79C131.579 32.7634 131.586 32.7334 131.599 32.7L134.009 26.25C134.029 26.1834 134.066 26.1267 134.119 26.08C134.179 26.0267 134.259 26 134.359 26H135.449C135.549 26 135.626 26.0267 135.679 26.08C135.733 26.1267 135.773 26.1834 135.799 26.25L138.209 32.7C138.216 32.7334 138.219 32.7634 138.219 32.79C138.219 32.85 138.199 32.9 138.159 32.94C138.119 32.98 138.073 33 138.019 33H137.149C137.056 33 136.986 32.98 136.939 32.94C136.899 32.8934 136.873 32.85 136.859 32.81L136.389 31.59H133.419L132.949 32.81C132.936 32.85 132.906 32.8934 132.859 32.94C132.819 32.98 132.753 33 132.659 33H131.789ZM133.769 30.44H136.039L134.899 27.35L133.769 30.44Z" fill="#766BF1"/>
<path d="M151.2 33C151.134 33 151.077 32.9767 151.03 32.93C150.984 32.8834 150.96 32.8267 150.96 32.76V27.23H149.11C149.044 27.23 148.987 27.2067 148.94 27.16C148.894 27.1134 148.87 27.0567 148.87 26.99V26.25C148.87 26.1767 148.894 26.1167 148.94 26.07C148.987 26.0234 149.044 26 149.11 26H154.21C154.284 26 154.344 26.0234 154.39 26.07C154.437 26.1167 154.46 26.1767 154.46 26.25V26.99C154.46 27.0567 154.437 27.1134 154.39 27.16C154.344 27.2067 154.284 27.23 154.21 27.23H152.37V32.76C152.37 32.8267 152.347 32.8834 152.3 32.93C152.254 32.9767 152.194 33 152.12 33H151.2Z" fill="#766BF1"/>
<path d="M169.038 33.1C168.445 33.1 167.935 33.0034 167.508 32.81C167.082 32.61 166.748 32.3067 166.508 31.9C166.268 31.4867 166.138 30.9734 166.118 30.36C166.112 30.0734 166.108 29.79 166.108 29.51C166.108 29.23 166.112 28.9434 166.118 28.65C166.138 28.0434 166.272 27.5367 166.518 27.13C166.765 26.7234 167.102 26.4167 167.528 26.21C167.962 26.0034 168.465 25.9 169.038 25.9C169.612 25.9 170.115 26.0034 170.548 26.21C170.982 26.4167 171.322 26.7234 171.568 27.13C171.815 27.5367 171.948 28.0434 171.968 28.65C171.982 28.9434 171.988 29.23 171.988 29.51C171.988 29.79 171.982 30.0734 171.968 30.36C171.948 30.9734 171.818 31.4867 171.578 31.9C171.338 32.3067 171.002 32.61 170.568 32.81C170.142 33.0034 169.632 33.1 169.038 33.1ZM169.038 31.95C169.472 31.95 169.825 31.8234 170.098 31.57C170.372 31.31 170.518 30.89 170.538 30.31C170.552 30.0167 170.558 29.7467 170.558 29.5C170.558 29.2467 170.552 28.9767 170.538 28.69C170.525 28.3034 170.452 27.99 170.318 27.75C170.192 27.5034 170.018 27.3267 169.798 27.22C169.578 27.1067 169.325 27.05 169.038 27.05C168.758 27.05 168.508 27.1067 168.288 27.22C168.068 27.3267 167.892 27.5034 167.758 27.75C167.632 27.99 167.562 28.3034 167.548 28.69C167.542 28.9767 167.538 29.2467 167.538 29.5C167.538 29.7467 167.542 30.0167 167.548 30.31C167.568 30.89 167.715 31.31 167.988 31.57C168.262 31.8234 168.612 31.95 169.038 31.95Z" fill="#766BF1"/>
<path d="M184.541 33C184.475 33 184.418 32.9767 184.371 32.93C184.325 32.8834 184.301 32.8267 184.301 32.76V26.25C184.301 26.1767 184.325 26.1167 184.371 26.07C184.418 26.0234 184.475 26 184.541 26H187.131C187.938 26 188.575 26.1867 189.041 26.56C189.508 26.9334 189.741 27.4767 189.741 28.19C189.741 28.6834 189.618 29.0934 189.371 29.42C189.131 29.7467 188.808 29.9834 188.401 30.13L189.861 32.68C189.881 32.72 189.891 32.7567 189.891 32.79C189.891 32.85 189.868 32.9 189.821 32.94C189.781 32.98 189.735 33 189.681 33H188.771C188.658 33 188.571 32.97 188.511 32.91C188.451 32.85 188.405 32.79 188.371 32.73L187.081 30.36H185.691V32.76C185.691 32.8267 185.668 32.8834 185.621 32.93C185.581 32.9767 185.525 33 185.451 33H184.541ZM185.691 29.23H187.101C187.508 29.23 187.811 29.14 188.011 28.96C188.211 28.7734 188.311 28.5134 188.311 28.18C188.311 27.8467 188.211 27.5867 188.011 27.4C187.818 27.2067 187.515 27.11 187.101 27.11H185.691V29.23Z" fill="#766BF1"/>
</svg>
